<svg xmlns="http://www.w3.org/2000/svg" viewBox="0 0 70.42 122.88" fill="#fff"><path d="M46.65 85.39c0-3.64-.89-6.49-2.68-8.56-1.81-2.07-4.94-4.02-9.45-5.86-4.49-1.83-8.65-3.69-12.46-5.57-3.81-1.88-7.1-4.07-9.85-6.56-2.75-2.47-4.87-5.34-6.35-8.61-1.46-3.24-2.18-7.19-2.18-11.85 0-7.76 2.61-14.16 7.85-19.16 5.22-5.03 12.2-7.97 20.92-8.79V0H43.4v10.71c8.4 1.22 15 4.68 19.8 10.37 4.79 5.67 7.22 12.86 7.22 21.58h-23.3c0-4.77-.92-8.44-2.75-11.03-1.83-2.56-4.44-3.86-7.85-3.86-3.03 0-5.38.96-7.05 2.87-1.67 1.9-2.52 4.52-2.52 7.88 0 3.41.96 6.09 2.89 8.09 1.93 2 5.03 3.9 9.29 5.73 4.28 1.81 8.3 3.69 12.11 5.64 3.79 1.95 7.05 4.16 9.8 6.63 2.75 2.49 4.92 5.39 6.47 8.7 1.57 3.29 2.35 7.26 2.35 11.9 0 7.85-2.49 14.27-7.48 19.23-4.98 4.96-11.76 7.85-20.36 8.68v9.75H31.08v-9.82c-10.02-1.06-17.71-4.49-23.04-10.3C2.68 96.96 0 89.29 0 79.79h23.23c0 5.24 1.15 9.21 3.48 11.96 2.3 2.73 5.6 4.09 9.87 4.09 3.13 0 5.57-.94 7.38-2.8 1.79-1.84 2.69-4.41 2.69-7.65z" fill-rule="evenodd" clip-rule="evenodd"/></svg>